<svg xmlns="http://www.w3.org/2000/svg" viewBox="0 0 488 488"><path d="M37 64c0-15 12-27 27-27h360c8 0 14 6 14 14 0 7-6 13-14 13H64c0 8-6 14-13 14-8 0-14-6-14-14zm0 180c0-15 12-27 27-27h360c8 0 14 6 14 14 0 7-6 13-14 13H64c0 8-6 14-13 14-8 0-14-6-14-14zm0 180c0-15 12-27 27-27h360c8 0 14 6 14 14 0 7-6 13-14 13H64c0 8-6 14-13 14-8 0-14-6-14-14z" fill="#a6acb9"/><path d="M64 10c-30 0-54 24-54 54s24 54 54 54h360c30 0 54-24 54-54s-24-54-54-54H64zm0 27h360c8 0 14 6 14 14 0 7-6 13-14 13H64c0 8-6 14-13 14-8 0-14-6-14-14 0-15 12-27 27-27zm0 153c-30 0-54 24-54 54s24 54 54 54h360c30 0 54-24 54-54s-24-54-54-54H64zm0 27h360c8 0 14 6 14 14 0 7-6 13-14 13H64c0 8-6 14-13 14-8 0-14-6-14-14 0-15 12-27 27-27zM10 424c0-30 24-54 54-54h360c30 0 54 24 54 54s-24 54-54 54H64c-30 0-54-24-54-54zm54-27c-15 0-27 12-27 27 0 8 6 14 14 14 7 0 13-6 13-14h360c8 0 14-6 14-13 0-8-6-14-14-14H64z" fill="#1e3050"/></svg>