<svg width="140" height="70" viewBox="0 0 140 70" fill="none" xmlns="http://www.w3.org/2000/svg">
<path d="M8.24705 34.5547L0.470825 56.3199V69.0699H139.471V61.3426H123.918L104.478 51.2971L75.317 27.0206H51.0163L41.296 10.2782L33.5198 1.06985L21.8554 47.9486L8.24705 34.5547Z" fill="url(#paint0_linear_8_189)" fill-opacity="0.8"/>
<path d="M8.24705 34.5547L8.59778 34.1984L8.03967 33.649L7.7762 34.3865L8.24705 34.5547ZM21.8554 47.9486L21.5047 48.305L22.1291 48.9196L22.3406 48.0694L21.8554 47.9486ZM33.5198 1.06985L33.9018 0.747257L33.2707 -1.15633e-05L33.0346 0.949126L33.5198 1.06985ZM41.296 10.2782L41.7284 10.0271L41.7064 9.98915L41.678 9.95559L41.296 10.2782ZM51.0163 27.0206L50.5839 27.2717L50.7284 27.5206H51.0163V27.0206ZM75.317 27.0206L75.6369 26.6363L75.4979 26.5206H75.317V27.0206ZM104.478 51.2971L104.158 51.6814L104.2 51.7163L104.248 51.7413L104.478 51.2971ZM123.918 61.3426L123.689 61.7868L123.797 61.8426H123.918V61.3426ZM139.824 61.6961C140.02 61.5009 140.02 61.1843 139.824 60.989L136.642 57.8071C136.447 57.6118 136.131 57.6118 135.935 57.8071C135.74 58.0023 135.74 58.3189 135.935 58.5142L138.764 61.3426L135.935 64.171C135.74 64.3663 135.74 64.6829 135.935 64.8781C136.131 65.0734 136.447 65.0734 136.642 64.8781L139.824 61.6961ZM0.941676 56.4881L8.7179 34.7229L7.7762 34.3865L-2.55108e-05 56.1516L0.941676 56.4881ZM7.89632 34.9111L21.5047 48.305L22.2062 47.5923L8.59778 34.1984L7.89632 34.9111ZM22.3406 48.0694L34.005 1.19058L33.0346 0.949126L21.3702 47.8279L22.3406 48.0694ZM33.1378 1.39245L40.914 10.6008L41.678 9.95559L33.9018 0.747257L33.1378 1.39245ZM40.8636 10.5292L50.5839 27.2717L51.4487 26.7696L41.7284 10.0271L40.8636 10.5292ZM51.0163 27.5206H75.317V26.5206H51.0163V27.5206ZM74.9971 27.4049L104.158 51.6814L104.798 50.9129L75.6369 26.6363L74.9971 27.4049ZM104.248 51.7413L123.689 61.7868L124.148 60.8984L104.707 50.8529L104.248 51.7413ZM123.918 61.8426H139.471V60.8426H123.918V61.8426Z" fill="#F64242"/>
<defs>
<linearGradient id="paint0_linear_8_189" x1="69.9708" y1="25.4108" x2="69.4708" y2="69.0699" gradientUnits="userSpaceOnUse">
<stop stop-color="#F74242"/>
<stop offset="1" stop-color="#D9D9D9" stop-opacity="0"/>
</linearGradient>
</defs>
</svg>
