<svg width="38" height="38" viewBox="0 0 38 38" fill="none" xmlns="http://www.w3.org/2000/svg">
<path d="M19.0317 4.60748C13.7908 4.60748 9.53167 8.86665 9.53167 14.1075V18.6833C9.53167 19.6492 9.12 21.1216 8.62917 21.945L6.80834 24.9692C5.68417 26.8375 6.46 28.9117 8.51834 29.6083C15.3425 31.8883 22.705 31.8883 29.5292 29.6083C31.445 28.975 32.2842 26.7108 31.2392 24.9692L29.4183 21.945C28.9433 21.1216 28.5317 19.6492 28.5317 18.6833V14.1075C28.5317 8.88248 24.2567 4.60748 19.0317 4.60748Z" stroke="#24804D" stroke-width="1.5" stroke-miterlimit="10" stroke-linecap="round"/>
<path d="M21.9608 5.06666C20.0461 4.52134 18.0172 4.52134 16.1025 5.06666C16.5617 3.89499 17.7017 3.07166 19.0317 3.07166C20.3617 3.07166 21.5017 3.89499 21.9608 5.06666Z" stroke="#24804D" stroke-width="1.5" stroke-miterlimit="10" stroke-linecap="round" stroke-linejoin="round"/>
<path d="M23.7817 30.1783C23.7817 32.7908 21.6442 34.9283 19.0317 34.9283C17.7333 34.9283 16.53 34.39 15.675 33.535C14.7854 32.6441 14.2845 31.4374 14.2817 30.1783" stroke="#24804D" stroke-width="1.5" stroke-miterlimit="10"/>
<circle cx="27.5172" cy="9.17241" r="5.24138" fill="#24804D"/>
</svg>
