<svg width="38" height="38" viewBox="0 0 38 38" fill="none" xmlns="http://www.w3.org/2000/svg">
<path d="M4.75 14.4242V23.56C4.75 26.9167 4.75 26.9167 7.91667 29.0542L16.625 34.0892C17.9392 34.8492 20.0767 34.8492 21.375 34.0892L30.0833 29.0542C33.25 26.9167 33.25 26.9167 33.25 23.5758V14.4242C33.25 11.0833 33.25 11.0833 30.0833 8.94582L21.375 3.91082C20.0767 3.15082 17.9392 3.15082 16.625 3.91082L7.91667 8.94582C4.75 11.0833 4.75 11.0833 4.75 14.4242Z" stroke="#24804D" stroke-width="1.5" stroke-linecap="round" stroke-linejoin="round"/>
<path d="M19 23.75C20.2598 23.75 21.468 23.2496 22.3588 22.3588C23.2496 21.468 23.75 20.2598 23.75 19C23.75 17.7402 23.2496 16.532 22.3588 15.6412C21.468 14.7504 20.2598 14.25 19 14.25C17.7402 14.25 16.532 14.7504 15.6412 15.6412C14.7504 16.532 14.25 17.7402 14.25 19C14.25 20.2598 14.7504 21.468 15.6412 22.3588C16.532 23.2496 17.7402 23.75 19 23.75Z" stroke="#24804D" stroke-width="1.5" stroke-linecap="round" stroke-linejoin="round"/>
</svg>
