<svg width="138" height="50" viewBox="0 0 138 50" fill="none" xmlns="http://www.w3.org/2000/svg">
<path d="M4.68414 34.5333L5.04895 34.1914L4.46844 33.5721L4.20822 34.3801L4.68414 34.5333ZM18.2439 49L17.8791 49.3419L18.1308 49.6105L18.462 49.4499L18.2439 49ZM34.6091 41.0667L34.8272 41.5166L35.0852 41.3915L35.1075 41.1056L34.6091 41.0667ZM37.4145 5.13333L37.8595 4.90524L37.0535 3.33311L36.916 5.09441L37.4145 5.13333ZM47.7012 25.2L47.2563 25.4281L47.3957 25.7H47.7012V25.2ZM72.0152 25.2V25.7H72.2007L72.3413 25.579L72.0152 25.2ZM98.1995 33.6L97.7763 33.8663L97.9025 34.0668L98.1376 34.0962L98.1995 33.6ZM120.643 36.4L120.581 36.8962L120.944 36.9414L121.097 36.6099L120.643 36.4ZM137.476 0L132.757 3.32658L137.997 5.7499L137.476 0ZM85.5749 13.5333L85.9981 13.2671L85.689 12.7756L85.2488 13.1543L85.5749 13.5333ZM0.951879 47.7533L5.16007 34.6866L4.20822 34.3801L2.48551e-05 47.4467L0.951879 47.7533ZM4.31934 34.8753L17.8791 49.3419L18.6087 48.6581L5.04895 34.1914L4.31934 34.8753ZM18.462 49.4499L34.8272 41.5166L34.3909 40.6167L18.0258 48.5501L18.462 49.4499ZM35.1075 41.1056L37.913 5.17225L36.916 5.09441L34.1106 41.0277L35.1075 41.1056ZM36.9696 5.36142L47.2563 25.4281L48.1462 24.9719L37.8595 4.90524L36.9696 5.36142ZM47.7012 25.7H72.0152V24.7H47.7012V25.7ZM98.1376 34.0962L120.581 36.8962L120.705 35.9038L98.2614 33.1038L98.1376 34.0962ZM121.097 36.6099L136.041 4.29428L135.133 3.87455L120.189 36.1901L121.097 36.6099ZM72.3413 25.579L85.901 13.9124L85.2488 13.1543L71.6891 24.821L72.3413 25.579ZM85.1517 13.7996L97.7763 33.8663L98.6227 33.3337L85.9981 13.2671L85.1517 13.7996Z" fill="#58ED82"/>
</svg>
